<?xml version="1.0" encoding="UTF-8" standalone="no"?>
<svg width="500px" height="500px" viewBox="0 0 500 500" version="1.1" xmlns="http://www.w3.org/2000/svg" xmlns:xlink="http://www.w3.org/1999/xlink">
    <!-- Generator: Sketch 39.1 (31720) - http://www.bohemiancoding.com/sketch -->
    <title>MEM</title>
    <desc>Created with Sketch.</desc>
    <defs>
        <polygon id="path-1" points="395.747771 203.113215 395.747771 0 0.0504458599 0 0.0504458599 406.226431 395.747771 406.226431 395.747771 203.113215"></polygon>
        <polygon id="path-3" points="0.28922293 47.0875421 67.6790064 47.0875421 67.6790064 0.0101010101 0.28922293 0.0101010101 0.28922293 47.0875421"></polygon>
    </defs>
    <g id="Page-1" stroke="none" stroke-width="1" fill="none" fill-rule="evenodd">
        <g id="MEM">
            <g id="MGrizzlies_Global_pms_onDkBkgd" transform="translate(52.000000, 0.000000)">
                <g id="Group-6">
                    <mask id="mask-2" fill="white">
                        <use xlink:href="#path-1"></use>
                    </mask>
                    <g id="Clip-2"></g>
                    <path d="M344.990828,76.2323232 L344.950471,76.1557239 L344.983261,76.1952862 C344.983261,76.1952862 344.250115,75.1473064 343.686803,74.3164983 C348.110064,65.7348485 350.176662,57.4074074 350.176662,49.6809764 C350.176662,31.493266 339.556127,16.4234007 325.866803,8.02946128 C306.123975,-4.05050505 277.379924,-3.98063973 260.434318,18.5193603 C231.597783,14.5538721 207.706624,22.4646465 198.501936,26.2525253 C189.317427,22.4646465 165.457376,14.5538721 136.656153,18.489899 C116.920892,-5.14225589 89.0100382,-3.4023569 70.4198981,9.26094276 C57.0744459,18.3720539 47.5637197,33.6329966 47.5637197,50.6952862 C47.5637197,58.1919192 49.5311083,65.9957912 53.6676688,73.8350168 C52.9008917,74.9175084 52.0138854,76.2323232 52.0138854,76.2323232 C33.9685605,103.712121 28.4674395,127.747475 28.4674395,146.828283 C28.4674395,175.329125 40.7291465,192.72138 41.5757962,193.930976 L46.8499108,201.166667 C46.8499108,201.166667 49.0274904,198.987374 50.8704459,197.144781 C57.3611465,213.653199 73.1902166,242.861953 108.922701,264.456229 L118.440153,270.193603 C118.440153,270.193603 119.084178,266.665825 119.667669,263.439394 C131.938624,274.12963 143.753885,280.617845 155.248815,286.772727 C168.71786,294.005892 181.426013,300.861111 193.464917,314.473064 L199.26535,321.06734 L204.992637,314.436027 C215.231465,302.550505 227.995949,295.991582 241.501987,289.015993 C253.599745,282.827441 266.895592,275.965488 279.383465,264.563131 C279.590293,267.754209 279.80721,271.09596 279.80721,271.09596 L290.05865,266.105219 C327.180917,247.994949 340.915643,215.825758 345.934166,196.744108 C347.767032,198.583333 349.784025,200.672559 349.784025,200.672559 L355.131287,193.43266 C356.57572,191.490741 390.053274,144.845118 344.990828,76.2323232" id="Fill-1" fill="#CDD7DE" mask="url(#mask-2)"></path>
                    <path d="M274.176611,406.226431 L281.503873,406.226431 L281.503873,374.198653 L290.918752,374.198653 L290.918752,406.226431 L299.069962,406.226431 L299.069962,366.324074 L274.176611,366.324074 L274.176611,406.226431 L274.176611,406.226431 Z M302.607898,406.226431 L310.025121,406.226431 L310.025121,324.965488 L302.607898,324.965488 L302.607898,406.226431 Z M231.933248,356.728114 L231.933248,343.046296 L236.951771,343.046296 C239.460611,343.046296 241.501987,345.516835 241.501987,348.553872 L241.501987,351.218013 C241.501987,354.291246 239.497605,356.728114 236.951771,356.728114 L231.933248,356.728114 L231.933248,356.728114 Z M248.939389,354.625421 L248.939389,345.963805 C248.939389,339.518519 243.788025,336.297138 238.994828,336.297138 L223.842573,336.297138 L223.842573,364.005051 L238.994828,364.005051 C243.788025,364.005051 248.939389,361.077441 248.939389,354.625421 L248.939389,354.625421 Z M262.421045,337.423401 L262.421045,406.226431 L270.659694,406.226431 L270.659694,325.010101 L258.003669,325.042929 L262.421045,337.423401 L262.421045,337.423401 Z M376.047822,344.508418 L372.097911,344.321549 C368.483465,344.321549 366.403414,342.789562 366.403414,339.001684 L366.403414,328.307239 C366.403414,326.321549 367.73014,324.709596 369.367108,324.709596 L370.576968,324.709596 C372.210573,324.709596 373.558318,326.321549 373.558318,328.307239 L373.558318,336.488215 L382.768892,336.488215 L382.768892,328.648148 C382.768892,328.607744 383.11949,323.247475 379.758955,319.579125 C377.521682,317.139731 374.134242,315.898148 369.660535,315.898148 C365.523134,315.898148 362.39549,317.021886 360.391949,319.195286 C357.551006,322.276094 357.804917,326.658249 357.804917,326.705387 L357.804917,326.851852 C357.755312,334.194444 357.755312,342.559764 357.882268,343.531145 C358.238752,345.516835 358.98535,349.645623 365.523134,351.441077 C367.206344,351.935185 369.213248,352.08165 371.330293,352.228956 C377.694879,352.719697 386.41949,353.360269 386.41949,365.723064 L386.41949,384.063973 C386.41949,384.211279 385.895694,397.484848 369.753019,397.484848 C354.064357,397.484848 354.064357,385.636364 354.064357,380.583333 L354.064357,371.841751 L344.626777,371.841751 L344.626777,384.742424 C344.626777,400.071549 356.291541,405.925926 367.023057,405.925926 L372.487185,405.925926 C385.956229,405.925926 395.747771,397.598485 395.747771,384.211279 L395.747771,364.234848 C395.747771,349.679293 385.973045,344.508418 376.047822,344.508418 L376.047822,344.508418 Z M240.194599,325.611111 L208.846701,325.611111 L213.187567,337.606902 L213.187567,405.73569 L220.311363,405.73569 L220.311363,332.776936 L238.994828,332.776936 C245.678904,332.776936 252.477325,337.492424 252.477325,345.963805 L252.477325,354.625421 C252.477325,363.109428 245.678904,367.558923 238.994828,367.558923 L223.842573,367.558923 L223.842573,405.73569 L231.933248,405.73569 L231.933248,374.043771 C231.933248,374.043771 241.975338,373.873737 241.98879,373.873737 C253.133962,373.873737 259.163924,363.961279 259.163924,354.625421 L259.361503,342.789562 C259.361503,331.605219 249.482522,325.611111 240.194599,325.611111 L240.194599,325.611111 Z M367.414013,363.590909 C374.924561,363.590909 373.764306,368.390572 373.764306,373.343434 L373.764306,381.744949 C373.764306,383.727273 372.43758,385.335859 370.783796,385.335859 L369.570573,385.335859 C367.942854,385.335859 366.613605,383.727273 366.613605,381.744949 L366.613605,371.841751 L357.531669,371.841751 L357.531669,380.583333 C357.531669,385.906566 357.531669,393.963805 369.753019,393.963805 C382.468739,393.963805 382.962268,384.40404 382.962268,384.027778 L382.962268,365.723064 C382.962268,357.072391 378.441478,356.273569 371.090675,355.717172 C368.893758,355.569865 366.626217,355.423401 364.622675,354.856061 C355.975414,352.452862 354.88158,346.410774 354.494828,344.175084 C354.217376,342.666667 354.321631,330.750842 354.36451,326.922559 C354.340968,326.545455 354.027363,320.998316 357.825096,316.839226 C360.505452,313.877946 364.488994,312.409933 369.660535,312.409933 C375.148204,312.409933 379.418446,314.025253 382.302268,317.21633 C385.858701,321.11532 386.236204,326.175084 386.236204,328.15404 C386.236204,328.500842 386.236204,328.723906 386.216866,328.83165 L386.216866,336.488215 L395.523287,336.488215 L395.523287,323.554714 C395.523287,311.285354 385.672892,303.111111 372.773885,303.111111 L368.593605,303.111111 C355.90479,303.111111 344.419949,309.782828 344.419949,323.854377 L344.419949,342.666667 C344.419949,356.504209 357.260943,363.590909 367.414013,363.590909 L367.414013,363.590909 Z M318.468917,338.284512 L318.485732,405.73569 L327.143924,405.73569 L327.143924,325.156566 L313.628637,325.156566 L318.468917,338.284512 L318.468917,338.284512 Z M330.67093,325.156566 L330.67093,405.73569 L339.325758,405.73569 L339.308943,325.156566 L330.67093,325.156566 L330.67093,325.156566 Z M58.6819873,303.374579 L0,303.374579 L4.92687898,316.722222 L4.92687898,405.058081 L13.4488662,405.058081 L13.4488662,311.661616 L57.3552611,311.76936 C64.562293,311.76936 71.0967134,317.176768 71.0967134,327.522727 L71.0967134,405.058081 L78.8351083,405.058081 L78.7779363,322.085859 C78.7779363,310.307239 68.7997452,303.374579 58.6819873,303.374579 L58.6819873,303.374579 Z M16.9792357,405.058081 L25.3406369,405.058081 L25.3406369,324.155724 L32.1113121,324.155724 L32.1113121,404.989057 L40.7291465,404.989057 L40.7291465,315.260101 C30.374293,315.226431 18.7196178,315.183502 16.9792357,315.183502 L16.9792357,405.058081 L16.9792357,405.058081 Z M106.604713,375.636364 L122.181554,375.636364 L122.181554,367.085017 L99.117707,367.085017 L99.117707,393.252525 C101.941834,393.252525 125.742191,393.209596 130.912051,393.209596 L130.912051,385.606061 L106.604713,385.559764 L106.604713,375.636364 L106.604713,375.636364 Z M290.918752,356.688552 L281.503873,356.688552 L281.503873,324.965488 L274.176611,325.010101 L274.176611,362.809764 L299.069962,362.809764 L299.069962,324.965488 L290.918752,324.965488 L290.918752,356.688552 L290.918752,356.688552 Z M187.663643,325.574074 L134.409631,325.574074 L138.903516,337.683502 L138.903516,405.555556 L146.447694,405.555556 L146.447694,332.883838 L186.45042,332.993266 C193.081529,332.993266 198.825631,337.984007 198.825631,347.436027 L198.825631,405.555556 L205.922522,405.555556 L205.866191,342.51936 C205.866191,331.875421 196.822089,325.574074 187.663643,325.574074 L187.663643,325.574074 Z M99.117707,363.513468 L122.181554,363.513468 L122.181554,355.423401 L106.604713,355.423401 L106.604713,345.81734 L130.912051,345.81734 L130.912051,337.606902 L99.117707,337.606902 L99.117707,363.513468 L99.117707,363.513468 Z M57.3552611,315.303872 C57.3552611,315.303872 51.4976561,315.303872 44.2469045,315.260101 L44.2469045,404.989057 L52.5242293,404.989057 L52.5242293,324.155724 L55.4273885,324.078283 C57.095465,324.078283 58.4583439,325.90404 58.4583439,328.122896 L58.4221911,405.058081 L67.5629809,405.058081 L67.5629809,327.522727 C67.5629809,319.502525 62.8193885,315.303872 57.3552611,315.303872 L57.3552611,315.303872 Z M149.991516,405.555556 L157.406217,405.555556 L157.406217,344.391414 L163.567338,344.391414 L163.567338,405.472222 L171.207363,405.472222 L171.207363,336.488215 C161.990064,336.488215 151.715924,336.45202 149.991516,336.404882 L149.991516,405.555556 L149.991516,405.555556 Z M186.45042,336.558081 C186.45042,336.558081 181.222548,336.521886 174.725962,336.521886 L174.725962,405.472222 L182.073401,405.472222 L182.073401,344.391414 L184.713401,344.321549 C186.227618,344.321549 187.456815,345.963805 187.456815,347.990741 L187.420662,405.555556 L195.27172,405.555556 L195.27172,347.436027 C195.27172,339.972222 191.167949,336.558081 186.45042,336.558081 L186.45042,336.558081 Z M86.9989299,336.558081 L86.9989299,405.255051 C90.8798981,405.255051 130.912051,405.212121 130.912051,405.212121 L130.912051,396.737374 L95.596586,396.807239 L95.596586,334.085017 L130.912051,334.085017 L130.912051,325.196128 L82.8421911,325.266835 L86.9989299,336.558081 L86.9989299,336.558081 Z" id="Fill-3" fill="#CDD7DE" mask="url(#mask-2)"></path>
                    <path d="M270.659694,406.226431 L270.659694,325.010101 L274.176611,325.010101 L274.176611,362.809764 L299.069962,362.809764 L299.069962,324.965488 L302.607898,324.965488 L302.607898,406.226431 L299.069962,406.226431 L299.069962,366.324074 L274.176611,366.324074 L274.176611,406.226431 L270.659694,406.226431 L270.659694,406.226431 Z M248.939389,354.625421 L248.939389,345.963805 C248.939389,339.518519 243.788025,336.297138 238.994828,336.297138 L223.842573,336.297138 L223.842573,364.005051 L238.994828,364.005051 C243.788025,364.005051 248.939389,361.077441 248.939389,354.625421 L248.939389,354.625421 Z M357.531669,371.841751 L357.531669,380.583333 C357.531669,385.906566 357.531669,393.963805 369.753019,393.963805 C382.468739,393.963805 382.962268,384.40404 382.962268,384.027778 L382.962268,365.723064 C382.962268,357.072391 378.441478,356.273569 371.090675,355.717172 C368.893758,355.569865 366.626217,355.423401 364.622675,354.856061 C355.975414,352.452862 354.88158,346.410774 354.494828,344.175084 C354.217376,342.666667 354.321631,330.750842 354.36451,326.922559 C354.340968,326.545455 354.027363,320.998316 357.825096,316.839226 C360.505452,313.877946 364.488994,312.409933 369.660535,312.409933 C375.148204,312.409933 379.418446,314.025253 382.302268,317.21633 C385.858701,321.11532 386.236204,326.175084 386.236204,328.15404 C386.236204,328.500842 386.236204,328.723906 386.216866,328.83165 L386.216866,336.488215 L382.768892,336.488215 L382.768892,328.648148 C382.768892,328.607744 383.11949,323.247475 379.758955,319.579125 C377.521682,317.139731 374.134242,315.898148 369.660535,315.898148 C365.523134,315.898148 362.39549,317.021886 360.391949,319.195286 C357.551006,322.276094 357.804917,326.658249 357.804917,326.705387 L357.804917,326.851852 C357.755312,334.194444 357.755312,342.559764 357.882268,343.531145 C358.238752,345.516835 358.98535,349.645623 365.523134,351.441077 C367.206344,351.935185 369.213248,352.08165 371.330293,352.228956 C377.694879,352.719697 386.41949,353.360269 386.41949,365.723064 L386.41949,384.063973 C386.41949,384.211279 385.895694,397.484848 369.753019,397.484848 C354.064357,397.484848 354.064357,385.636364 354.064357,380.583333 L354.064357,371.841751 L357.531669,371.841751 L357.531669,371.841751 Z M220.311363,405.73569 L220.311363,332.776936 L238.994828,332.776936 C245.678904,332.776936 252.477325,337.492424 252.477325,345.963805 L252.477325,354.625421 C252.477325,363.109428 245.678904,367.558923 238.994828,367.558923 L223.842573,367.558923 L223.842573,405.73569 L220.311363,405.73569 L220.311363,405.73569 Z M327.143924,405.73569 L330.67093,405.73569 L330.67093,325.156566 L327.143924,325.156566 L327.143924,405.73569 Z M13.4488662,405.058081 L13.4488662,311.661616 L57.3552611,311.76936 C64.562293,311.76936 71.0967134,317.176768 71.0967134,327.522727 L71.0967134,405.058081 L67.5629809,405.058081 L67.5629809,327.522727 C67.5629809,319.502525 62.8193885,315.303872 57.3552611,315.303872 C57.3552611,315.303872 51.4976561,315.303872 44.2469045,315.260101 L44.2469045,404.989057 L40.7291465,404.989057 L40.7291465,315.260101 C30.374293,315.226431 18.7196178,315.183502 16.9792357,315.183502 L16.9792357,405.058081 L13.4488662,405.058081 L13.4488662,405.058081 Z M130.912051,337.606902 L99.117707,337.606902 L99.117707,363.513468 L122.181554,363.513468 L122.181554,367.085017 L99.117707,367.085017 L99.117707,393.252525 C101.941834,393.252525 125.742191,393.209596 130.912051,393.209596 L130.912051,396.737374 L95.596586,396.807239 L95.596586,334.085017 L130.912051,334.085017 L130.912051,337.606902 L130.912051,337.606902 Z M146.447694,405.555556 L146.447694,332.883838 L186.45042,332.993266 C193.081529,332.993266 198.825631,337.984007 198.825631,347.436027 L198.825631,405.555556 L195.27172,405.555556 L195.27172,347.436027 C195.27172,339.972222 191.167949,336.558081 186.45042,336.558081 C186.45042,336.558081 181.222548,336.521886 174.725962,336.521886 L174.725962,405.472222 L171.207363,405.472222 L171.207363,336.488215 C161.990064,336.488215 151.715924,336.45202 149.991516,336.404882 L149.991516,405.555556 L146.447694,405.555556 L146.447694,405.555556 Z" id="Fill-4" fill="#7892AE" mask="url(#mask-2)"></path>
                    <path d="M338.822981,80.4309764 C337.545019,78.4755892 336.275465,76.6355219 334.982369,74.8468013 C367.023057,22.2710438 291.429096,-18.0387205 264.064739,26.5867003 C230.38372,20.4048822 202.202981,32.7020202 198.411975,34.489899 C194.631898,32.7348485 166.826981,20.5521886 133.432662,26.469697 C100.388102,-20.1010101 32.208,28.0488215 62.2821401,74.2390572 C60.8419108,76.2323232 59.3983185,78.2912458 58.0118981,80.4309764 C15.2792102,145.523569 47.3602548,189.654882 47.3602548,189.654882 L53.9283057,183.056397 C53.9283057,183.056397 63.2725605,228.459596 112.619541,258.308923 L114.399439,248.525253 C144.77121,280.988215 172.931771,280.240741 199.125783,309.936869 C223.355771,281.81229 258.563618,281.81229 285.997758,246.717172 L285.997758,259.170034 C336.671465,234.497475 341.349478,181.059764 341.349478,181.059764 L346.009834,189.731481 C346.009834,189.731481 381.552306,145.523569 338.822981,80.4309764" id="Fill-5" fill="#111B2B" mask="url(#mask-2)"></path>
                </g>
                <path d="M231.353121,126.545455 C233.734166,125.680976 237.927898,128.160774 240.155083,132.55303 C250.460331,129.585859 249.896178,115.714646 249.839006,114.73569 C241.668459,117.890572 234.947389,123.354377 231.353121,126.545455" id="Fill-7" fill="#F7C03B"></path>
                <path d="M237.417554,134.762626 C262.304178,201.837542 230.587185,244.957071 230.587185,244.957071 C250.113096,193.733165 237.571414,151.140572 229.009911,135.320707 C224.632892,135.777778 219.371389,135.510101 219.371389,135.510101 C219.371389,135.510101 225.959618,131.421717 230.22986,127.559764 C230.570369,127.229798 230.957121,126.888889 231.386752,126.511785 C231.373299,126.511785 231.373299,126.511785 231.353121,126.545455 C233.734166,125.680976 237.927898,128.160774 240.155083,132.55303 C250.439312,129.585859 249.896178,115.750842 249.839006,114.73569 C252.833809,113.541246 255.996764,112.71633 259.311057,112.37037 C259.311057,112.37037 256.930854,134.41835 237.417554,134.762626 L237.417554,134.762626 Z M249.839006,114.73569 L249.839006,114.73569 C249.722981,114.772727 249.610318,114.806397 249.499338,114.849327 C249.610318,114.806397 249.722981,114.772727 249.839006,114.73569 L249.839006,114.73569 Z M83.8393376,69.5606061 C82.9321529,61.0883838 93.6107006,52.7213805 93.6107006,52.7213805 C89.2059363,48.1481481 81.5078981,52.0833333 81.5078981,52.0833333 C88.4996943,38.4318182 104.118573,45.1043771 104.118573,45.1043771 C98.2012739,37.8779461 85.6528662,38.3181818 85.6528662,38.3181818 C101.175057,22.9419192 119.877019,46.459596 119.877019,46.459596 C103.218115,50.2483165 83.8393376,69.5606061 83.8393376,69.5606061 L83.8393376,69.5606061 Z M276.703108,48.1481481 C276.703108,48.1481481 286.841885,22.7954545 317.849274,28.9132997 C317.849274,28.9132997 289.368382,10.1683502 269.549045,44.0900673 C269.549045,44.0900673 241.432204,30.709596 199.019006,49.0799663 C199.019006,49.0799663 158.869987,35.0614478 128.589019,43.0084175 C128.589019,43.0084175 110.909427,12.3047138 86.0463439,24.9747475 C61.1521529,37.5774411 74.1310318,66.8198653 78.4777834,74.3930976 C78.4777834,74.3930976 37.2618344,116.428451 52.7470318,168.426768 L61.0462166,158.043771 C61.0462166,158.043771 72.8841783,214.660774 103.435032,232.505051 L105.272102,218.602694 C105.272102,218.602694 137.166497,257.140572 174.648611,273.492424 C178.229427,275.177609 198.119389,285.047138 198.712127,289.917508 L198.712127,262.961279 C198.712127,262.961279 172.708127,265.127946 165.834038,253.095118 C161.166115,244.927609 131.268535,191.521044 146.040764,135.547138 C146.040764,135.547138 131.638471,133.407407 128.938777,109.112795 C128.938777,109.112795 118.197172,103.86532 104.865172,104.949495 C104.865172,104.949495 128.715134,97.4503367 151.075261,106.107744 C173.434548,114.772727 179.409019,136.858586 194.557911,127.075758 L199.019006,64.9410774 L203.290089,127.075758 C218.434777,136.858586 224.429427,114.772727 246.76265,106.107744 C269.128662,97.4503367 292.982828,104.949495 292.982828,104.949495 C292.982828,104.949495 283.451083,98.2348485 268.105452,95.1607744 C255.303975,92.5740741 236.504484,100.824074 236.504484,100.824074 C236.504484,100.824074 239.090675,83.2053872 247.64293,73.7920875 C254.970191,65.6944444 271.57949,63.9326599 276.703108,48.1481481 L276.703108,48.1481481 Z M198.825631,193.546296 C201.65228,193.099327 246.672688,191.490741 219.085529,219.500842 C238.318013,194.000842 203.436382,193.816498 198.825631,193.546296 L198.825631,193.546296 Z" id="Fill-8" fill="#7892AE"></path>
                <path d="M149.128051,114.659091 C149.07172,115.714646 148.528586,129.585859 158.812815,132.55303 C161.013936,128.277778 164.960484,125.757576 167.347414,126.511785 C161.869834,122.236532 154.975567,117.469697 149.128051,114.659091" id="Fill-9" fill="#F7C03B"></path>
                <path d="M198.712127,227.410774 L198.712127,240.154882 L190.080841,240.652357 C181.006471,240.905724 169.114701,244.580808 169.114701,244.580808 C147.087516,189.955387 159.296255,148.630471 165.177401,133.888047 C143.347796,138.617845 139.80986,112.37037 139.80986,112.37037 C142.070675,111.892256 145.380764,112.893939 149.128051,114.659091 C149.07172,115.714646 148.528586,129.585859 158.812815,132.55303 C161.006369,128.277778 164.960484,125.757576 167.347414,126.511785 C168.981019,127.747475 170.491873,128.978114 171.807669,130.110269 C186.653885,142.589226 198.17572,140.079966 198.17572,140.079966 C198.17572,140.079966 198.342191,187.70202 198.342191,193.546296 C198.342191,193.546296 155.386701,190.185185 178.472408,219.500842 C178.472408,219.500842 182.180178,208.770202 186.110752,212.151515 C191.580764,216.840909 198.712127,226.393098 198.712127,227.410774 L198.712127,227.410774 Z M149.175134,114.696128 L149.128051,114.696128 L149.175134,114.696128 L149.175134,114.696128 Z M198.739032,256.506734 C167.347414,256.506734 171.584866,249.603535 171.584866,249.603535 C174.968943,247.470539 196.95493,247.053872 198.698675,247.053872 C200.435694,247.053872 222.512484,247.470539 225.883108,249.603535 C225.883108,249.603535 230.123924,256.506734 198.739032,256.506734 L198.739032,256.506734 Z" id="Fill-10" fill="#CDD7DE"></path>
                <path d="M106.151541,441.993266 L89.4094013,435.922559 L89.449758,442.928451 L76.6844331,478.101852 L86.6088153,481.742424 L92.5563822,465.394781 L95.5772484,466.483165 C96.4373503,466.782828 96.7904713,467.93771 96.4003567,469.06229 L91.1733248,483.392256 L100.985045,486.995791 L106.375185,472.184343 C107.219312,469.850168 106.958675,467.713805 105.629427,466.142256 C105.629427,466.142256 108.962217,465.574916 110.742955,460.628788 L113.086166,454.556397 C115.179669,448.779461 111.079261,443.80303 106.151541,441.993266 L106.151541,441.993266 Z M102.541299,454.102694 L102.035159,455.492424 C101.454191,457.069865 99.9542675,457.930976 98.5905478,457.447811 L95.8008917,456.399832 L98.3601783,449.343434 L101.175057,450.398148 C102.507669,450.882155 103.121427,452.531145 102.541299,454.102694 L102.541299,454.102694 Z" id="Fill-11" fill="#7892AE"></path>
                <path d="M311.031516,446.493266 L307.591108,436.516835 L282.813783,445.181818 L286.968,450.314815 L299.363389,485.97138 C301.36693,485.271044 322.093452,478.024411 322.093452,478.024411 L318.563083,468.167508 L306.027287,472.520202 C305.678369,471.505892 303.990955,466.659091 303.990955,466.659091 L312.021936,463.856061 L308.525197,453.765993 L300.493376,456.575758 L298.510013,450.882155 L311.031516,446.493266" id="Fill-12" fill="#7892AE"></path>
                <polyline id="Fill-13" fill="#7892AE" points="241.64828 487.704545 238.414701 453.955387 225.196204 455.234848 228.489478 461.976431 231.993783 498.611953 257.906981 496.178451 256.950191 486.23569 241.64828 487.704545"></polyline>
                <polyline id="Fill-14" fill="#7892AE" points="126.305503 455.345118 125.404204 447.801347 138.079567 450.511785 129.169146 493.551347 118.810089 491.341751 126.305503 455.345118"></polyline>
                <polyline id="Fill-15" fill="#7892AE" points="263.435006 457.146465 259.574217 450.61532 272.24958 447.951178 281.503873 490.965488 271.133045 493.104377 263.435006 457.146465"></polyline>
                <g id="Group-19" transform="translate(145.452229, 452.861953)">
                    <mask id="mask-4" fill="white">
                        <use xlink:href="#path-3"></use>
                    </mask>
                    <g id="Clip-17"></g>
                    <polyline id="Fill-16" fill="#7892AE" mask="url(#mask-4)" points="31.166293 2.77693603 4.85961783 0.0101010101 3.67582166 12.2255892 11.0367134 10.3501684 15.2876178 10.8072391 0.28922293 43.6868687 26.5992611 46.3072391 27.516535 36.3442761 16.1678981 35.1759259 31.166293 2.77693603"></polyline>
                    <polyline id="Fill-18" fill="#7892AE" mask="url(#mask-4)" points="67.6790064 3.34343434 41.241172 3.23653199 41.2781656 15.486532 48.4162548 12.9031987 52.6957452 12.9427609 41.0108025 47.1380471 67.4755414 47.1380471 67.3855796 37.1313131 55.996586 37.0850168 67.6790064 3.34343434"></polyline>
                </g>
                <path d="M343.726318,450.958754 L345.806369,454.06734 C346.309987,454.820707 346.213299,455.751684 345.599541,456.169192 L344.26693,457.069865 C343.656535,457.447811 342.74935,457.184343 342.269274,456.422559 L339.812561,452.755051 L331.611745,458.188552 L334.788153,463.038721 C338.592611,468.732323 344.396408,468.061448 348.404331,465.394781 L351.315057,463.438552 C356.368892,460.097643 357.958777,454.556397 354.641121,449.56734 L349.699949,442.110269 C346.087185,436.670034 341.146013,437.164141 337.452535,439.597643 L335.058879,441.085859 C333.711975,441.993266 332.528178,441.916667 331.611745,440.531987 L328.967541,436.556397 C328.463924,435.808923 328.557248,434.867845 329.178573,434.467172 L330.504459,433.559764 C331.124102,433.188552 332.025401,433.442761 332.511363,434.19697 L334.535083,437.234007 L342.735898,431.800505 L339.532586,426.957071 C336.499108,422.381313 330.787796,421.787037 325.993758,424.974747 L323.543771,426.574074 C318.799338,429.731481 316.16186,435.061448 319.650191,440.345118 L324.307185,447.354377 C327.737503,452.531145 334.292102,452 338.088994,449.456229 C341.536127,447.170875 342.506369,449.126263 343.726318,450.958754" id="Fill-20" fill="#7892AE"></path>
                <path d="M62.7882803,462.990741 C59.2049427,468.314815 52.9008917,468.579125 48.6104713,465.694444 L44.1762803,462.691077 C39.8858599,459.810606 37.7654522,453.842593 41.3454268,448.555556 L55.7485605,426.997475 C59.282293,421.680976 65.5964331,421.372896 69.902828,424.253367 L74.3403822,427.22138 C78.6484586,430.068182 80.7814777,436.069024 77.2384968,441.356061 L74.3773758,445.66835 L65.6166115,439.784512 L67.4099618,437.117845 C68.0665987,436.102694 68.0472611,434.907407 67.3334522,434.420875 L65.9327389,433.489057 C65.2189299,432.994949 64.0965096,433.442761 63.4255796,434.467172 C63.4255796,434.467172 62.7126115,435.508418 61.6255032,437.164141 C59.6715669,440.044613 51.1369682,452.83165 51.1369682,452.83165 C50.4509045,453.842593 50.4609936,455.043771 51.1975032,455.535354 L52.6007389,456.5 C53.2910064,456.953704 54.4142675,456.552189 55.0910828,455.535354 L58.3456815,450.73569 L56.8121274,449.713805 L60.8990828,443.612795 L71.2127389,450.511785 L62.7882803,462.990741" id="Fill-21" fill="#7892AE"></path>
            </g>
        </g>
    </g>
</svg>